<?xml version="1.0" encoding="utf-8"?>
<!-- Generator: Adobe Illustrator 23.1.1, SVG Export Plug-In . SVG Version: 6.00 Build 0)  -->
<svg version="1.1" id="Layer_1" xmlns="http://www.w3.org/2000/svg" xmlns:xlink="http://www.w3.org/1999/xlink" x="0px" y="0px"
	 viewBox="0 0 50 50" style="enable-background:new 0 0 50 50;" xml:space="preserve">
<style type="text/css">
	.st0{fill:#E4347D;}
</style>
<path id="Path_29" class="st0" d="M36.46,47.9c-12.65,2.74-25.12-5.29-27.87-17.93C5.85,17.32,13.88,4.84,26.53,2.1
	c3.27-0.71,6.66-0.71,9.93,0C23.81,5.15,16.03,17.87,19.08,30.52C21.15,39.12,27.86,45.83,36.46,47.9 M43.5,46.93
	c-0.51,0.04-1.02,0.06-1.53,0.05c-12.14,0.01-21.99-9.83-22-21.97s9.83-21.99,21.97-22c0.01,0,0.02,0,0.03,0
	c0.51,0,1.02,0.02,1.52,0.05c-12.11-6.63-27.3-2.18-33.93,9.93s-2.18,27.3,9.93,33.93C26.98,51.02,36.03,51.02,43.5,46.93
	L43.5,46.93z"/>
</svg>
