<?xml version="1.0" encoding="utf-8"?>
<!-- Generator: Adobe Illustrator 23.1.1, SVG Export Plug-In . SVG Version: 6.00 Build 0)  -->
<svg version="1.1" id="Layer_1" xmlns="http://www.w3.org/2000/svg" xmlns:xlink="http://www.w3.org/1999/xlink" x="0px" y="0px"
	 viewBox="0 0 80.29 50" style="enable-background:new 0 0 80.29 50;" xml:space="preserve">
<style type="text/css">
	.st0{fill:#6660AA;}
	.st1{fill:#0DB9E9;}
	.st2{fill:#484D9B;}
</style>
<g>
	<g id="Path_20" transform="translate(-508.069 -844.527)">
		<path class="st0" d="M528.7,878.04c-0.58-1.32-1.03-2.7-1.32-4.13c-0.1-0.45-0.18-0.93-0.24-1.4l0,0l0,0
			c-0.06-0.48-0.11-0.96-0.16-1.45c-0.03-0.5-0.05-1-0.05-1.51v-0.05c0-2.88,0.56-5.65,1.67-8.27c1.08-2.54,2.6-4.8,4.56-6.76
			c1.96-1.96,4.22-3.49,6.76-4.56c2.62-1.11,5.4-1.67,8.27-1.67c2.99,0,5.86,0.61,8.56,1.8c2.62,1.16,4.93,2.8,6.91,4.88
			c0.35,0.37,0.67,0.74,1,1.12c0.31,0.37,0.59,0.76,0.88,1.16c0.27,0.39,0.53,0.79,0.79,1.17c0.75,1.24,1.38,2.54,1.88,3.89
			c-5.4,2.84-11.9,5.78-19.39,8.77C541.26,874.05,534.53,876.4,528.7,878.04z"/>
		<path class="st0" d="M531.13,873.39c4.87-1.51,10.31-3.45,16.27-5.83c5.86-2.35,11.12-4.64,15.84-6.99
			c-0.05-0.06-0.08-0.14-0.13-0.21l-0.63-0.95l-0.74-0.96l-0.82-0.93c-3.34-3.53-7.86-5.49-12.72-5.49
			c-9.65,0-17.49,7.86-17.49,17.53l0.05,1.25l0.13,1.19l0.21,1.16C531.08,873.23,531.09,873.31,531.13,873.39 M526.77,882.45
			c-1.43-2.36-2.47-4.98-3.07-7.76c-0.11-0.55-0.21-1.09-0.29-1.64c-0.08-0.56-0.14-1.12-0.18-1.7c-0.05-0.58-0.06-1.17-0.06-1.77
			v-0.05c0-13.82,11.2-25.01,25.01-25.01c7.16,0,13.64,3.02,18.2,7.86c0.4,0.43,0.79,0.87,1.17,1.33c0.37,0.45,0.71,0.9,1.04,1.37
			c0.32,0.45,0.63,0.92,0.92,1.4c1.45,2.35,2.51,4.95,3.12,7.71c-0.16,0.08-0.31,0.18-0.47,0.26c-5.93,3.28-13.33,6.68-21.99,10.14
			c-8.71,3.47-16.42,6.09-22.91,7.76C527.11,882.36,526.93,882.41,526.77,882.45z"/>
	</g>
	<g id="Path_21" transform="translate(-526.232 -930.426)">
		<path class="st1" d="M569.51,963.38c-7.39,3.02-14.96,5.59-22.65,7.71c-0.35-0.43-0.69-0.88-1.01-1.35
			c7.86-2.12,15.57-4.74,23.08-7.82c7.58-2.96,14.99-6.36,22.17-10.23c0.08,0.56,0.14,1.12,0.19,1.69
			C584.22,957.13,576.96,960.47,569.51,963.38z"/>
		<path class="st2" d="M546.84,971.09c-0.35-0.43-0.69-0.88-1.01-1.35c5.7-1.48,13.24-3.9,23.08-7.82
			c8.71-3.47,16.22-6.94,22.17-10.23c0.08,0.56,0.14,1.12,0.19,1.69c-5.61,3.05-12.82,6.43-21.78,9.99
			C560.56,966.94,553.01,969.45,546.84,971.09z"/>
	</g>
	<g id="Path_22" transform="translate(-534.906 -944.252)">
		<path class="st0" d="M575.03,990.49c-3.02,0-5.93-0.61-8.66-1.83c-0.59-0.27-1.19-0.56-1.75-0.88c4.79-1.54,9.98-3.42,15.53-5.64
			c5.56-2.22,10.65-4.43,15.18-6.6c-0.21,0.67-0.45,1.33-0.72,1.98c-1.08,2.54-2.6,4.8-4.56,6.76c-1.96,1.96-4.22,3.49-6.76,4.56
			C580.68,989.93,577.89,990.49,575.03,990.49z"/>
		<path class="st0" d="M600.04,968.93c0,0.1,0,0.21,0,0.31c0,13.82-11.2,25.01-25.01,25.01c-7.26,0-13.8-3.1-18.36-8.03
			c6.43-1.73,13.85-4.29,22.1-7.58C587.03,975.36,594.18,972.1,600.04,968.93z"/>
	</g>
	<path id="Path_23" class="st0" d="M73.85,6.92c-0.26,0-0.51,0-0.79,0.02c-4.59,0.29-9.14,1.04-13.57,2.23
		c0.37,0.45,0.71,0.9,1.04,1.37c4.11-1.08,8.34-1.77,12.58-2.02c0.26,0,0.5-0.02,0.74-0.02c3.37,0,4.76,0.76,4.85,1.27
		c0.08,0.42-0.24,1.32-1.37,2.6c-1.85,1.98-3.94,3.69-6.22,5.12c-1.82,1.22-3.92,2.47-6.25,3.78C57.69,25.12,50.3,28.54,42.7,31.5
		c-7.53,3.08-15.24,5.7-23.08,7.82c-6.96,1.8-11.18,2.18-13.54,2.18c-3.21,0-4.35-0.71-4.5-1.11c-0.18-0.47,0.27-2.02,3.24-4.67
		c3.28-2.73,6.81-5.14,10.55-7.2c-0.08-0.56-0.14-1.14-0.18-1.7c-4.05,2.18-7.87,4.79-11.41,7.73c-5.72,5.11-5,8.53,2.31,8.53
		c3.41,0,8.26-0.74,14.55-2.41C36.04,36.3,50.93,30.36,65.1,22.95C82.54,13.39,84.25,6.92,73.85,6.92z"/>
</g>
</svg>
