<?xml version="1.0" encoding="utf-8"?>
<!-- Generator: Adobe Illustrator 23.1.1, SVG Export Plug-In . SVG Version: 6.00 Build 0)  -->
<svg version="1.1" id="Layer_1" xmlns="http://www.w3.org/2000/svg" xmlns:xlink="http://www.w3.org/1999/xlink" x="0px" y="0px"
	 viewBox="0 0 80.13 50" style="enable-background:new 0 0 80.13 50;" xml:space="preserve">
<style type="text/css">
	.st0{fill:#6660AA;}
</style>
<g>
	<path id="Path_24" class="st0" d="M73.72,6.92c-0.26,0-0.51,0-0.79,0.02c-4.58,0.29-9.12,1.04-13.54,2.23
		c0.37,0.45,0.71,0.9,1.04,1.36c4.1-1.07,8.32-1.76,12.55-2.02c0.26,0,0.5-0.02,0.74-0.02c3.37,0,4.74,0.75,4.84,1.27
		c0.08,0.42-0.24,1.31-1.36,2.6c-1.84,1.97-3.93,3.69-6.22,5.11c-1.81,1.22-3.91,2.47-6.23,3.77c-7.16,3.85-14.54,7.26-22.12,10.21
		c-7.52,3.08-15.21,5.67-23.03,7.8c-6.94,1.79-11.15,2.2-13.51,2.2c-3.21,0-4.34-0.71-4.49-1.11c-0.18-0.46,0.27-2.02,3.24-4.66
		c3.27-2.72,6.8-5.13,10.53-7.18c-0.08-0.56-0.14-1.14-0.18-1.7c-4.04,2.18-7.85,4.78-11.39,7.71c-5.71,5.1-4.98,8.51,2.31,8.51
		c3.4,0,8.24-0.74,14.52-2.4c7.68-2.12,15.23-4.7,22.6-7.69c7.44-2.9,14.7-6.22,21.73-9.97C82.37,13.39,84.09,6.92,73.72,6.92z"/>
	<g id="Path_25" transform="translate(-61.119 -844.527)">
		<path class="st0" d="M101.18,846.4c-3.13,0-6.14,0.61-8.99,1.81c-2.74,1.17-5.22,2.82-7.34,4.95c-2.12,2.12-3.78,4.58-4.95,7.34
			c-1.2,2.84-1.81,5.87-1.81,8.99c0,0.56,0.02,1.12,0.06,1.68c0.03,0.53,0.1,1.06,0.18,1.57c0.5,3.56,1.86,7,3.93,9.95
			c0.29,0.42,0.61,0.83,0.93,1.25c2.12,2.63,4.84,4.81,7.85,6.28c3.17,1.55,6.59,2.34,10.14,2.34c3.11,0,6.14-0.61,8.99-1.81
			c2.76-1.17,5.22-2.82,7.34-4.95c2.12-2.12,3.78-4.58,4.95-7.34c1.2-2.85,1.81-5.87,1.81-8.99c0-0.64-0.03-1.27-0.08-1.89
			c-0.05-0.53-0.1-1.06-0.18-1.55c-0.53-3.54-1.91-6.97-3.99-9.9c-0.3-0.43-0.64-0.87-0.96-1.27
			C114.64,849.5,108.14,846.4,101.18,846.4 M101.18,844.53c7.79,0,14.74,3.57,19.33,9.15c0.37,0.45,0.71,0.9,1.04,1.36
			c2.21,3.13,3.73,6.76,4.33,10.72c0.08,0.56,0.14,1.12,0.19,1.68c0.05,0.67,0.08,1.35,0.08,2.04c0,13.78-11.17,24.95-24.95,24.95
			c-7.87,0-14.89-3.64-19.46-9.33c-0.35-0.43-0.69-0.88-1.01-1.35c-2.2-3.14-3.69-6.8-4.25-10.77c-0.08-0.56-0.14-1.12-0.18-1.7
			c-0.05-0.59-0.06-1.2-0.06-1.81C76.23,855.71,87.4,844.53,101.18,844.53z"/>
	</g>
</g>
</svg>
