<?xml version="1.0" encoding="utf-8"?>
<!-- Generator: Adobe Illustrator 23.1.1, SVG Export Plug-In . SVG Version: 6.00 Build 0)  -->
<svg version="1.1" id="Layer_1" xmlns="http://www.w3.org/2000/svg" xmlns:xlink="http://www.w3.org/1999/xlink" x="0px" y="0px"
	 viewBox="0 0 50 50" style="enable-background:new 0 0 50 50;" xml:space="preserve">
<style type="text/css">
	.st0{fill:#0DB9E9;}
</style>
<g id="Path_26" transform="translate(-275.14 -562.828)">
	<path class="st0" d="M300.13,570.12l-4.12,12.67l-0.42,1.3h-1.37H280.9l10.78,7.83l1.11,0.8l-0.42,1.3l-4.12,12.67l10.78-7.83
		l1.11-0.8l1.11,0.8l10.78,7.83l-4.12-12.67l-0.42-1.3l1.11-0.8l10.78-7.83h-13.32h-1.37l-0.42-1.3L300.13,570.12 M300.13,564.04
		l5.9,18.17h19.11l-15.46,11.23l5.9,18.17l-15.46-11.23l-15.46,11.23l5.9-18.17l-15.46-11.23h19.11L300.13,564.04z"/>
</g>
</svg>
