<?xml version="1.0" encoding="utf-8"?>
<!-- Generator: Adobe Illustrator 23.1.1, SVG Export Plug-In . SVG Version: 6.00 Build 0)  -->
<svg version="1.1" id="Layer_1" xmlns="http://www.w3.org/2000/svg" xmlns:xlink="http://www.w3.org/1999/xlink" x="0px" y="0px"
	 viewBox="0 0 400 400" style="enable-background:new 0 0 400 400;" xml:space="preserve">
<style type="text/css">
	.st0{fill:url(#Path_12_1_);}
	.st1{fill:#E4347D;}
	.st2{fill:#6660AA;}
	.st3{fill:#0DB9E9;}
</style>
<g>
	
		<linearGradient id="Path_12_1_" gradientUnits="userSpaceOnUse" x1="0.2113" y1="399.1509" x2="1.0042" y2="399.1509" gradientTransform="matrix(503.4755 0 0 -372.722 -106.0013 149024.5625)">
		<stop  offset="0" style="stop-color:#DB1379"/>
		<stop  offset="0.022" style="stop-color:#E4347D"/>
		<stop  offset="0.287" style="stop-color:#6660AA"/>
		<stop  offset="0.703" style="stop-color:#6660AA"/>
		<stop  offset="1" style="stop-color:#0DB9E9"/>
	</linearGradient>
	<path id="Path_12" class="st0" d="M382.83,160.73c21.9,100.97-42.19,200.58-143.17,222.49c-100.97,21.9-200.58-42.19-222.49-143.17
		c-5.67-26.14-5.67-53.19,0-79.32c19.88,82.51,94.31,144,182.83,144S362.96,243.25,382.83,160.73 M375.08,104.48
		c0.3,4.04,0.44,8.11,0.44,12.22c0,96.94-78.58,175.52-175.52,175.52S24.48,213.64,24.48,116.7c0-4.08,0.14-8.15,0.44-12.16
		C8.79,133.91,0.35,166.89,0.4,200.4C0.4,310.63,89.77,400,200,400c110.26,0,199.6-89.37,199.6-199.6
		C399.64,166.87,391.21,133.88,375.08,104.48L375.08,104.48z"/>
	<path id="Path_13" class="st1" d="M86.91,236.97v-83.94c15.8-5.5,31.96-9.92,48.37-13.22V124.4c-16.38,3.15-32.54,7.38-48.37,12.66
		V55.84c5.34-4.84,21.28-17.77,48.37-27.88V11.89C94.22,25.9,74.54,46.63,73.73,47.51l-2.02,2.17v172.58
		c4.77,5.24,9.85,10.18,15.21,14.8L86.91,236.97z"/>
	<path id="Path_14" class="st2" d="M255,270.89V120.91l-2.21-0.28c-12.08-1.55-24.39-2.52-36.61-2.89
		c-17.38-0.51-34.78,0.18-52.07,2.06V19c42.98-10.83,84.52,3.35,84.94,3.47l3.29,1.03V7.66l-1.89-0.47
		c-11.81-3.02-53.63-13.86-96.16-1.16l-5.4,1.61v0.02h0.22v129.36l2.71-0.41c21.15-3.13,42.54-4.4,63.91-3.77
		c7.85,0.24,15.94,0.75,24.06,1.53v128.2c-12.17,2.99-46.81,10.69-87.57-2.79l-3.33-1.09v13.41l-0.04-0.01v0.03
		c34.67,10.5,71.73,10.07,106.15-1.22L255,270.89z"/>
	<path id="Path_15" class="st3" d="M325.75,63.75l4.15,3.36V48.56l-0.99-0.75c-15.22-14.22-42.32-28.93-61.18-35.77v241.03h0.01
		v13.07c23.67-9.93,44.89-24.92,62.15-43.92v-14.66l-4.47,5.18c-13.66,15.85-31.24,27.63-42.48,34.22V141.2
		c14.76,3.28,29.31,7.47,43.56,12.53l3.4,1.2v-16.07l-1.71-0.56c-14.81-5.12-29.92-9.32-45.25-12.56v-90.3
		C291.69,39.72,306.63,48.2,325.75,63.75z"/>
</g>
</svg>
